# xmcd CD database file
#
# Track frame offsets:
#	150
#	20697
#	41813
#
# Disc length: 782 seconds
#
# Revision: 0
# Processed by: cddbd v1.4PL0 Copyright (c) Steve Scherf et al.
# Submitted via: CDex 1.40Beta8
#
DISCID=21030c03
DTITLE=Trish Murphy - Steamboat 2002 Sampler
DYEAR=2002
DGENRE=Country
TTITLE0=Trouble With Trouble (Captured)
TTITLE1=Wrong Side Of Town (Crooked Mile)
TTITLE2=Concession Stand Song (Rubies On The Lawn)
EXTD=YEAR: 2002 ID3G: 2
EXTT0=
EXTT1=
EXTT2=
PLAYORDER=
